<?xml version="1.0" standalone="no"?>
<!DOCTYPE svg PUBLIC "-//W3C//DTD SVG 20010904//EN"
 "http://www.w3.org/TR/2001/REC-SVG-20010904/DTD/svg10.dtd">
<svg version="1.0" xmlns="http://www.w3.org/2000/svg"
 width="900.000000pt" height="1125.000000pt" viewBox="0 0 900.000000 1125.000000"
 preserveAspectRatio="xMidYMid meet">
<metadata>
Created by potrace 1.10, written by Peter Selinger 2001-2011
</metadata>
<g transform="translate(0.000000,1125.000000) scale(0.100000,-0.100000)"
fill="#000000" stroke="none">
<path d="M4565 11094 c-115 -31 -141 -39 -192 -58 -134 -49 -287 -142 -367
-222 -46 -46 -116 -175 -116 -215 0 -28 -20 -93 -45 -144 -83 -176 -100 -270
-100 -560 0 -245 -4 -227 81 -353 24 -36 53 -85 65 -109 11 -24 25 -45 30 -49
5 -3 9 -17 9 -31 0 -15 7 -34 15 -43 9 -10 16 -41 18 -78 3 -75 11 -86 25 -30
11 47 6 116 -11 136 -22 27 -58 129 -62 175 -3 26 -12 61 -20 77 -8 16 -15 36
-15 45 0 9 -9 19 -20 22 -17 5 -20 14 -20 68 0 54 -4 66 -26 88 -23 23 -26 36
-31 123 -5 76 -3 103 9 128 9 17 25 52 37 79 12 26 26 47 31 47 6 0 14 8 17
17 4 9 14 24 22 33 9 9 24 30 33 46 28 47 42 67 66 97 12 16 22 38 22 49 0 13
5 18 13 15 8 -3 18 -2 23 1 17 13 54 71 54 87 0 8 9 15 19 15 10 0 22 7 25 16
5 12 14 15 35 11 25 -5 30 -2 35 17 3 14 18 29 33 35 54 21 111 59 148 95 35
35 62 44 36 12 -22 -27 -4 -54 35 -54 28 0 33 3 24 14 -12 14 -6 34 11 34 5 0
9 -6 9 -14 0 -16 21 -26 55 -26 16 0 29 9 38 27 l15 27 16 -32 c10 -20 24 -32
36 -32 23 0 25 17 5 44 -16 22 -20 72 -6 80 5 3 14 -8 21 -25 7 -17 24 -37 37
-46 12 -8 23 -22 23 -29 0 -23 26 -16 44 11 9 14 21 25 26 25 6 0 16 -11 22
-25 6 -14 17 -25 25 -25 8 0 27 -10 43 -22 23 -16 33 -19 42 -10 13 13 90 7
125 -10 16 -8 26 -8 36 0 11 9 16 7 25 -12 8 -19 18 -24 41 -24 17 1 37 -5 46
-12 9 -8 29 -10 50 -7 19 3 35 3 35 -1 0 -4 7 -15 15 -25 12 -17 18 -18 50 -7
39 13 61 5 32 -11 -22 -13 -13 -29 16 -29 13 0 32 -7 44 -15 13 -9 24 -11 28
-6 3 6 17 4 33 -5 15 -7 32 -14 38 -14 6 0 17 -6 24 -14 6 -8 18 -12 26 -9 19
7 18 42 -3 65 -15 17 -15 20 -1 34 14 14 20 14 67 -1 28 -10 51 -21 51 -25 0
-15 72 -80 89 -80 39 1 43 14 27 77 -9 34 -16 68 -16 77 0 26 31 19 66 -15 39
-38 54 -31 54 23 0 58 -45 123 -127 183 -83 61 -149 104 -179 116 -13 4 -40
19 -61 32 -45 29 -181 87 -202 87 -9 0 -33 6 -56 14 -77 27 -469 76 -595 75
-58 0 -114 -8 -175 -25z m1068 -412 c20 -17 23 -42 5 -42 -19 0 -61 48 -53 60
7 11 19 6 48 -18z m180 -37 c-4 -15 -36 -12 -41 3 -3 9 3 13 19 10 13 -1 23
-7 22 -13z"/>
<path d="M5900 10281 c0 -5 7 -11 15 -15 9 -3 15 0 15 9 0 8 -7 15 -15 15 -8
0 -15 -4 -15 -9z"/>
<path d="M5917 10213 c-48 -36 -54 -53 -26 -76 15 -12 33 -17 54 -14 61 9 90
-17 125 -114 11 -30 20 -55 20 -57 0 -12 -59 16 -76 37 -18 21 -30 26 -64 25
-34 -1 -49 -8 -81 -40 -41 -40 -48 -66 -29 -121 13 -35 71 -68 89 -50 8 8 11
8 11 -1 0 -6 13 -26 29 -45 16 -18 33 -46 37 -63 11 -50 32 -74 64 -74 24 0
31 5 36 27 6 22 2 31 -22 50 -16 12 -35 23 -41 23 -22 0 -14 50 12 74 14 13
25 30 25 39 0 25 22 67 35 67 7 0 20 16 31 35 16 30 17 41 7 90 -13 60 -45
109 -106 167 -51 46 -87 52 -130 21z m3 -323 c0 -11 -4 -20 -10 -20 -5 0 -10
2 -10 4 0 2 -3 11 -6 20 -4 11 -1 16 10 16 9 0 16 -8 16 -20z"/>
<path d="M4733 10010 c-42 -17 -25 -30 34 -28 46 2 58 7 61 21 3 14 -4 17 -35
16 -21 0 -48 -4 -60 -9z"/>
<path d="M4852 9898 c-22 -22 -14 -82 16 -121 25 -34 62 -50 62 -27 0 6 -9 29
-20 51 -12 23 -18 48 -15 60 6 19 -9 49 -24 49 -4 0 -12 -5 -19 -12z"/>
<path d="M4730 9581 c0 -5 18 -28 39 -52 33 -37 42 -42 53 -31 11 11 6 20 -32
53 -45 39 -60 47 -60 30z"/>
<path d="M6073 9448 c-32 -16 -57 -69 -49 -104 l8 -29 15 30 c8 17 31 44 50
61 48 42 32 69 -24 42z"/>
<path d="M6165 9320 c-16 -11 -38 -25 -47 -32 -14 -10 -20 -9 -36 5 -10 9 -23
17 -29 17 -17 0 -2 -47 23 -71 33 -31 30 -51 -14 -91 -65 -59 -104 -157 -67
-172 8 -3 15 -17 15 -30 0 -18 12 -33 43 -54 38 -26 43 -27 58 -13 9 9 26 24
37 33 28 23 28 46 1 57 -20 7 -17 10 27 33 l49 26 -2 53 c-1 30 -5 75 -8 102
l-7 47 -50 0 c-35 0 -48 4 -45 13 2 8 31 12 97 12 60 0 95 4 97 11 5 14 -74
74 -96 74 -9 0 -29 -9 -46 -20z"/>
<path d="M5662 9198 c-13 -13 -16 -41 -5 -51 10 -10 33 13 33 34 0 23 -14 31
-28 17z"/>
<path d="M5575 9116 c-9 -13 -15 -28 -13 -32 1 -5 -10 -22 -25 -38 -15 -16
-27 -40 -27 -53 0 -32 -45 -89 -75 -97 -14 -4 -25 -11 -25 -16 0 -6 -9 -10
-20 -10 -24 0 -26 13 -5 30 9 7 13 21 9 34 -3 15 6 34 31 64 33 38 35 42 15
42 -13 0 -28 -13 -42 -36 -13 -22 -26 -33 -35 -30 -8 3 -23 6 -34 6 -12 0 -19
7 -19 20 0 13 -14 26 -41 40 -41 19 -59 19 -59 -1 0 -16 -43 -69 -56 -69 -7 0
-16 -5 -19 -10 -9 -14 32 -100 46 -100 6 0 9 -8 6 -19 -2 -10 0 -25 4 -34 13
-22 1 -46 -21 -40 -21 6 -110 86 -110 100 0 5 -11 22 -24 39 -13 16 -33 40
-45 54 l-20 25 -1 -27 c0 -15 9 -51 20 -80 11 -29 20 -66 20 -82 0 -16 8 -35
17 -41 16 -12 14 -14 -20 -20 -20 -4 -50 -4 -65 0 -93 23 -394 33 -479 14
-103 -22 -159 -36 -173 -41 -8 -3 -40 -13 -70 -22 -158 -47 -197 -59 -215 -67
-27 -12 -174 -47 -285 -69 -130 -26 -160 -30 -260 -39 -278 -26 -347 -35 -377
-47 -18 -8 -42 -14 -54 -14 -11 0 -38 -13 -58 -29 -20 -15 -63 -36 -96 -45
-53 -15 -126 -46 -220 -94 -16 -8 -46 -27 -65 -41 -19 -14 -48 -33 -65 -42
-148 -80 -170 -95 -365 -239 -113 -83 -186 -128 -220 -136 -45 -9 -154 -42
-210 -63 -30 -12 -86 -24 -125 -27 -79 -6 -125 -22 -205 -72 -93 -58 -206
-179 -262 -281 -134 -249 -158 -311 -158 -421 0 -39 -6 -73 -14 -85 -7 -11
-17 -40 -21 -64 -4 -25 -24 -72 -44 -105 -21 -34 -48 -87 -62 -120 -13 -32
-40 -77 -59 -100 -64 -73 -102 -137 -96 -161 4 -14 -2 -32 -14 -48 -24 -31
-63 -107 -85 -167 -37 -104 -75 -224 -80 -258 -47 -293 -58 -337 -113 -455
-23 -49 -42 -93 -42 -99 0 -5 -6 -22 -14 -36 -8 -15 -29 -65 -47 -112 -26 -71
-66 -173 -108 -275 -5 -11 -16 -39 -25 -62 -68 -179 -111 -270 -135 -285 -44
-27 -17 -211 31 -213 30 -2 89 -18 94 -26 3 -5 13 -9 22 -9 9 0 30 -7 46 -15
15 -8 33 -15 38 -15 9 0 46 -15 113 -45 17 -8 55 -24 85 -36 100 -39 140 -61
149 -78 5 -9 13 -44 16 -78 5 -44 14 -68 32 -87 31 -33 43 -30 66 17 14 28 25
37 43 37 25 0 25 -1 18 -62 -12 -119 -31 -190 -71 -278 -16 -36 -38 -84 -48
-108 -10 -23 -24 -47 -32 -53 -7 -6 -13 -15 -13 -20 0 -16 29 -9 42 9 9 13 28
19 60 21 l47 2 -6 -35 c-4 -28 -1 -36 16 -45 27 -15 27 -61 1 -119 -39 -86
-43 -117 -20 -163 11 -23 22 -70 26 -103 5 -53 2 -71 -24 -131 -40 -97 -44
-118 -27 -141 19 -25 19 -75 1 -119 -26 -61 -39 -191 -31 -294 9 -121 7 -253
-6 -311 -6 -25 -12 -81 -15 -125 -7 -139 -19 -198 -47 -242 -27 -42 -35 -47
-99 -59 -41 -7 -48 -17 -21 -33 17 -10 17 -10 -1 -11 -11 0 -30 -9 -42 -21
-27 -25 -44 -18 -44 20 0 15 -7 36 -15 47 -8 10 -15 31 -15 46 0 34 -15 44
-36 24 -8 -9 -20 -16 -26 -16 -7 0 -9 -16 -5 -45 6 -43 5 -45 -37 -80 -24 -19
-48 -35 -54 -35 -15 0 -27 -69 -15 -81 6 -6 25 -4 52 6 89 31 146 9 173 -68 6
-15 14 -27 19 -27 12 0 12 47 -1 69 -12 23 12 46 58 54 l32 7 0 -44 c0 -34 5
-47 22 -59 l23 -15 -23 -25 c-45 -48 -4 -91 44 -46 22 21 23 24 8 40 -19 21
-14 30 37 76 41 37 70 120 46 135 -15 9 -37 -10 -37 -33 0 -13 -7 -19 -22 -19
-17 0 -19 3 -10 12 18 18 15 68 -3 68 -8 0 -15 -4 -15 -10 0 -5 -7 -10 -15
-10 -18 0 -20 21 -3 38 19 19 43 14 98 -18 54 -32 70 -36 70 -20 0 6 5 10 11
10 8 0 8 -4 1 -12 -5 -7 -13 -38 -16 -68 -4 -30 -10 -74 -13 -97 -4 -34 -10
-43 -34 -53 -37 -16 -36 -25 1 -58 17 -15 30 -36 30 -47 0 -30 -48 -62 -106
-71 -27 -4 -58 -10 -69 -14 -32 -12 46 -24 113 -17 86 8 313 76 427 127 11 5
32 9 47 8 54 -1 163 68 292 184 17 16 35 28 41 28 6 0 24 14 41 31 16 17 40
35 52 40 13 5 26 18 29 29 3 11 9 20 14 20 5 0 9 5 9 10 0 15 89 100 153 145
31 22 57 46 57 53 0 18 -4 16 -73 -31 -81 -56 -129 -79 -138 -70 -5 5 1 27 13
51 l22 42 -24 25 c-18 20 -33 25 -69 25 -25 0 -53 -4 -60 -9 -20 -13 -51 5
-51 29 0 58 -52 100 -125 100 -53 0 -88 -16 -129 -59 -34 -35 -57 -38 -118
-15 -60 24 -80 45 -89 101 -10 57 -36 220 -50 316 -21 142 -3 433 41 665 12
63 12 79 -20 412 -6 58 -14 119 -19 135 -5 17 -15 72 -21 122 -15 106 -2 219
32 285 28 54 41 61 94 53 36 -5 57 -17 94 -51 28 -27 56 -44 71 -44 22 0 24 4
24 48 0 33 8 59 26 87 14 22 36 65 48 95 13 30 34 78 46 105 13 28 34 79 48
115 71 182 99 215 121 145 5 -17 15 -44 22 -62 8 -17 14 -36 14 -42 0 -6 7
-25 14 -43 8 -18 38 -91 66 -163 28 -71 56 -134 61 -140 13 -14 10 -66 -6 -95
-8 -14 -14 -40 -15 -58 0 -18 -7 -40 -15 -48 -11 -12 -15 -39 -15 -111 0 -159
51 -315 154 -470 15 -23 28 -52 28 -65 0 -13 -3 -113 -7 -223 -13 -367 16
-455 205 -627 54 -49 60 -69 60 -191 0 -76 5 -129 15 -157 8 -23 15 -63 15
-89 0 -25 7 -55 15 -65 20 -27 20 -76 0 -76 -9 0 -20 11 -25 24 -5 13 -13 27
-19 30 -12 8 -40 -44 -34 -61 3 -9 -6 -13 -29 -13 -53 0 -78 -11 -84 -36 -6
-23 -10 -24 -84 -24 -43 0 -90 -4 -104 -10 -28 -10 -106 -84 -106 -100 0 -15
31 -28 80 -33 101 -11 122 -28 80 -64 -26 -23 -25 -33 4 -33 31 0 56 58 31 72
-21 13 -19 25 11 53 32 30 45 24 38 -14 -5 -24 -2 -30 16 -36 13 -4 33 -2 46
5 19 11 26 11 39 0 8 -7 25 -10 39 -6 22 5 25 3 28 -26 2 -21 10 -36 24 -43
12 -6 29 -17 38 -24 9 -8 18 -12 20 -10 17 22 46 95 47 117 1 46 17 -5 18 -58
1 -25 7 -54 15 -65 7 -11 16 -31 19 -45 9 -41 33 -100 45 -112 7 -7 12 -20 12
-29 0 -9 7 -22 15 -29 8 -7 15 -19 15 -26 0 -8 4 -14 9 -14 5 0 13 -10 16 -22
4 -13 20 -35 36 -50 16 -15 29 -30 29 -34 0 -4 7 -12 16 -18 14 -10 13 -14 -5
-38 -27 -33 -27 -34 8 -46 24 -9 29 -16 34 -58 3 -27 1 -50 -4 -52 -18 -7 -8
-22 15 -22 13 0 29 -7 36 -15 21 -25 83 -51 88 -37 6 19 24 14 20 -6 -2 -11
12 -32 36 -52 33 -30 36 -35 22 -46 -20 -14 -22 -64 -2 -64 8 0 16 7 20 15 9
24 26 18 26 -9 0 -38 -10 -56 -34 -56 -11 0 -30 -7 -40 -15 -11 -8 -24 -15
-29 -15 -12 0 3 43 21 56 13 10 12 14 -6 32 -12 12 -25 22 -28 22 -11 0 -43
-45 -44 -60 0 -8 -7 -24 -15 -34 -20 -26 -19 -60 1 -77 14 -11 18 -10 30 5 7
11 20 16 28 13 25 -10 7 -36 -31 -46 -19 -6 -42 -18 -50 -28 -13 -16 -14 -14
-9 28 8 69 -4 102 -42 113 -26 7 -36 5 -52 -9 -21 -19 -27 -45 -10 -45 6 0 10
7 10 15 0 22 21 18 27 -5 3 -11 9 -20 14 -20 12 0 11 -28 -1 -32 -11 -3 -31
-100 -23 -108 3 -3 8 1 10 8 3 6 14 12 24 12 11 0 29 5 40 10 15 9 19 7 19 -7
0 -10 3 -27 5 -38 4 -15 -1 -23 -22 -32 -31 -15 -53 -17 -53 -5 0 4 -14 13
-31 19 -25 10 -31 9 -36 -4 -4 -11 1 -22 15 -31 12 -8 22 -21 22 -28 0 -9 11
-14 30 -14 21 0 30 5 30 16 0 33 34 8 45 -33 12 -51 18 -57 42 -44 10 5 35 13
56 16 21 3 46 15 55 26 9 10 19 19 22 19 4 0 8 -26 9 -57 5 -117 -1 -107 66
-117 33 -5 585 -10 1227 -12 1037 -3 1170 -2 1200 12 42 19 62 31 118 70 25
18 61 39 80 47 19 9 66 45 105 81 38 36 72 66 76 66 4 0 12 -7 19 -15 14 -17
47 -19 69 -6 12 8 11 13 -10 30 -13 11 -19 20 -13 21 6 0 22 9 34 20 13 12 31
19 39 18 22 -4 25 -33 5 -52 -9 -9 -14 -20 -11 -23 11 -11 57 8 57 23 0 12 7
14 30 9 27 -6 30 -4 30 19 0 14 -8 30 -17 35 -16 9 -14 10 9 11 15 0 30 -5 33
-10 3 -6 15 -10 26 -10 26 0 19 24 -8 28 -11 2 -25 14 -31 28 -7 13 -18 24
-27 24 -17 0 -20 16 -5 25 6 4 20 -5 31 -19 11 -14 29 -26 39 -26 10 0 25 -7
34 -15 8 -8 26 -15 40 -15 14 0 29 -6 33 -13 19 -30 78 -55 128 -53 36 1 59
-4 81 -19 17 -12 57 -34 88 -50 53 -27 55 -29 39 -47 -9 -10 -13 -21 -10 -25
15 -14 65 -5 94 17 23 16 39 21 57 16 39 -10 32 -32 -9 -32 -20 0 -40 -7 -47
-16 -7 -9 -22 -18 -32 -20 -39 -6 -28 -27 16 -30 40 -3 39 -8 -4 -22 -13 -4
-18 -16 -18 -46 l0 -40 485 0 c300 0 485 4 485 10 0 5 -8 13 -17 18 -14 8 -15
14 -3 41 10 26 10 35 -2 52 -16 24 -60 27 -513 33 -231 3 -252 2 -274 -16 -13
-10 -40 -18 -60 -18 l-35 0 24 17 c14 9 32 25 41 35 18 19 64 24 74 8 3 -6 15
-10 26 -10 14 0 19 7 19 26 0 20 4 25 18 22 28 -8 84 45 80 73 -3 26 -17 30
-175 55 -46 7 -107 -14 -131 -44 -10 -14 -16 -14 -30 -4 -9 7 -24 15 -32 19
-8 3 -28 17 -43 30 -16 13 -36 23 -45 23 -9 0 -32 9 -51 21 l-34 20 -31 -30
c-18 -17 -36 -31 -41 -31 -5 0 -39 20 -75 44 -36 25 -79 48 -96 52 -39 10 -74
33 -74 50 0 7 11 19 24 26 13 7 47 25 74 40 76 40 160 95 179 118 10 11 23 20
30 20 6 0 27 13 45 30 18 16 38 30 44 30 7 0 14 7 18 15 6 17 36 21 36 5 0 -6
-7 -13 -15 -16 -22 -9 -18 -42 5 -49 30 -10 82 5 87 24 4 15 30 35 87 68 79
45 186 69 186 41 0 -8 -9 -19 -21 -24 -21 -10 -20 -10 10 -43 17 -18 31 -37
31 -42 0 -15 -37 -10 -44 6 -8 21 -26 19 -26 -3 0 -27 -9 -32 -31 -19 -25 15
-32 5 -18 -27 11 -23 10 -28 -7 -40 -15 -12 -17 -17 -6 -27 10 -11 19 -11 44
-1 20 7 36 8 43 2 8 -6 18 -5 31 5 17 13 17 14 2 15 -10 0 -18 5 -18 11 0 7 9
9 23 6 26 -7 41 1 50 26 8 21 30 22 47 2 16 -19 34 -19 50 0 7 8 25 15 41 15
21 0 27 4 23 15 -4 9 -19 15 -35 15 -19 0 -29 -5 -29 -15 0 -8 -7 -15 -15 -15
-27 0 -16 28 19 49 18 12 45 21 60 21 34 0 86 26 86 44 0 7 -9 21 -20 31 l-21
19 26 13 c14 8 25 19 25 24 0 6 9 9 20 6 24 -6 56 34 46 58 -3 8 -1 15 3 15 9
0 25 -30 23 -42 -3 -14 15 -8 38 12 26 23 80 27 80 7 0 -7 -20 -31 -45 -53
-25 -21 -45 -43 -45 -48 0 -5 15 -6 33 -3 20 3 40 0 52 -9 18 -13 18 -14 -7
-14 -15 0 -39 -5 -55 -12 l-28 -11 30 -7 c46 -11 133 -11 140 0 12 19 25 10
25 -16 0 -24 -3 -26 -32 -21 -49 7 -94 -15 -101 -49 -3 -16 -4 -30 -3 -31 1
-2 16 8 34 20 39 30 102 26 102 -5 0 -11 8 -22 20 -25 16 -4 20 -14 20 -44 0
-42 10 -52 51 -51 36 1 38 -20 4 -46 -34 -27 -33 -46 3 -38 76 19 82 19 82 -2
0 -28 -25 -51 -48 -45 -13 3 -21 -2 -25 -16 -2 -11 -1 -21 4 -23 17 -6 21
-132 5 -153 -10 -14 -11 -25 -5 -37 8 -14 4 -19 -18 -24 -55 -12 -58 -13 -37
-29 10 -8 37 -15 60 -15 41 0 84 -30 84 -58 0 -7 4 -12 9 -12 5 0 4 13 -2 30
-6 16 -8 32 -5 35 4 4 62 7 130 8 l123 2 3 -83 3 -82 604 0 605 0 0 880 0 880
-44 0 c-24 0 -61 6 -82 13 -40 14 -145 36 -267 58 -71 12 -93 6 -82 -23 3 -8
24 -22 45 -32 22 -10 63 -39 91 -64 28 -26 58 -51 65 -55 8 -4 14 -15 14 -23
0 -13 -8 -14 -42 -9 -24 4 -51 11 -60 16 -31 17 -41 11 -35 -21 6 -25 2 -32
-22 -44 -21 -11 -31 -12 -39 -4 -9 9 -17 7 -32 -7 -26 -23 -25 -33 3 -46 17
-8 22 -19 22 -50 1 -42 1 -42 -67 -41 -59 0 -65 5 -67 59 0 26 -6 73 -11 103
-12 63 -14 78 -25 180 -4 41 -12 83 -17 93 -5 11 -14 65 -18 120 -17 197 -55
487 -72 552 -6 22 -14 69 -19 105 -14 122 -47 260 -105 445 -6 22 -20 69 -29
105 -33 123 -66 223 -87 264 -6 11 -14 31 -18 45 -5 14 -18 51 -30 81 -44 116
-59 163 -54 171 3 5 29 20 57 34 29 14 59 30 67 34 19 11 106 49 195 86 22 9
54 22 70 30 86 38 173 64 236 72 29 3 64 12 78 20 15 7 32 13 39 13 6 0 12 7
12 15 0 8 -5 15 -10 15 -14 0 -87 157 -164 350 -10 25 -24 59 -31 75 -29 68
-35 82 -56 135 -22 57 -27 69 -78 183 -17 37 -31 71 -31 76 0 5 -6 22 -14 38
-18 36 -40 86 -61 143 -10 25 -21 54 -26 65 -4 11 -18 45 -29 75 -25 64 -78
196 -91 225 -4 11 -18 45 -30 75 -11 30 -27 69 -34 85 -25 57 -34 80 -56 135
-11 30 -27 69 -34 85 -7 17 -20 47 -29 68 -9 20 -22 52 -30 70 -8 17 -42 100
-76 182 -58 142 -73 177 -98 235 -6 14 -11 37 -10 52 0 18 -11 38 -32 59 -17
18 -36 42 -41 53 -5 12 -18 35 -29 51 -11 17 -24 39 -30 50 -5 11 -25 47 -44
80 -49 85 -153 295 -161 325 -6 26 -18 56 -55 150 -23 58 -102 221 -123 255
-61 98 -101 161 -106 165 -3 3 -19 22 -35 44 -35 47 -96 109 -156 157 -36 30
-344 219 -355 219 -2 0 -30 18 -63 39 -55 37 -104 66 -213 124 -25 14 -63 35
-85 48 -21 12 -59 33 -84 46 -82 44 -92 57 -90 121 1 31 2 66 1 76 -1 25 -127
146 -150 146 -10 0 -28 9 -41 20 -13 11 -31 20 -41 20 -10 0 -22 7 -27 16 -5
8 -19 21 -32 27 -33 17 -34 30 -4 66 28 34 28 75 -1 51 -29 -24 -14 8 20 43
19 20 35 42 35 49 0 7 8 34 17 60 16 44 16 48 0 66 -9 10 -17 25 -18 33 0 8
-5 -1 -10 -19 -12 -41 -33 -37 -37 6 -4 37 -38 54 -57 28 -7 -9 -17 -16 -24
-16 -16 0 -13 30 4 36 22 9 18 24 -5 24 -11 0 -27 -11 -35 -24z m-1973 -2396
c40 -5 179 -14 308 -19 129 -5 248 -14 264 -20 16 -7 36 -9 45 -6 21 6 45 -10
36 -25 -4 -7 -17 -9 -31 -6 -16 4 -26 1 -33 -11 -9 -17 -10 -17 -29 0 -19 17
-20 17 -36 -8 -9 -13 -28 -28 -42 -31 -21 -5 -24 -11 -20 -30 8 -29 -18 -34
-33 -7 -5 10 -13 14 -17 10 -5 -4 -3 -17 4 -27 15 -24 16 -57 2 -65 -5 -3 -10
-10 -10 -16 0 -14 43 -10 64 6 11 8 27 15 37 15 9 0 19 7 23 15 3 8 12 15 21
15 16 0 34 12 63 43 9 9 22 17 29 17 13 0 103 58 114 74 17 22 90 36 199 36
63 0 126 -3 139 -7 21 -5 23 -10 17 -52 -3 -25 -10 -113 -16 -195 -6 -81 -13
-152 -16 -157 -3 -6 -10 -82 -15 -171 -5 -96 -14 -171 -22 -187 -8 -16 -14
-69 -16 -131 -1 -57 -6 -111 -11 -121 -5 -9 -12 -68 -16 -130 -3 -63 -11 -132
-16 -154 -6 -22 -13 -99 -17 -171 -5 -97 -11 -135 -22 -146 -12 -12 -14 -40
-12 -144 3 -134 -1 -169 -18 -158 -6 3 -9 36 -8 72 2 67 -3 112 -16 143 -3 9
0 23 8 30 7 8 16 35 20 60 5 37 3 50 -12 63 -24 22 -41 20 -41 -5 0 -12 -5
-39 -12 -61 -15 -49 -28 -32 -28 38 0 38 5 55 19 68 11 10 21 32 23 50 3 31 4
32 51 19 25 -8 23 47 -4 81 -19 25 -20 30 -8 54 7 15 22 37 33 50 18 20 18 23
3 35 -12 9 -17 31 -19 81 -2 43 -8 71 -15 73 -19 7 -44 -92 -50 -197 -3 -52
-10 -100 -15 -106 -5 -7 -11 -36 -15 -65 -3 -30 -11 -57 -16 -61 -12 -7 -14
-200 -3 -234 5 -16 2 -23 -14 -27 -16 -4 -20 -13 -20 -46 0 -28 -5 -43 -17
-50 -13 -7 -18 -22 -18 -52 0 -24 -5 -44 -12 -46 -19 -7 -26 60 -15 130 6 34
14 96 17 137 4 41 13 100 21 130 8 30 14 83 14 118 0 55 -2 63 -17 60 -15 -3
-18 -16 -21 -86 -2 -62 -6 -82 -17 -82 -9 0 -16 -16 -20 -47 -3 -27 -10 -67
-15 -90 -6 -23 -7 -49 -4 -57 8 -20 -33 -86 -54 -86 -8 0 -29 -5 -46 -11 -42
-15 -119 4 -114 29 2 9 13 18 26 20 12 2 22 8 22 14 0 7 -15 9 -40 5 -43 -5
-56 13 -24 31 14 8 15 14 5 42 -14 41 -14 97 -1 105 15 9 40 73 40 102 0 13 7
26 15 29 11 5 13 16 8 49 -3 23 -1 51 5 61 8 14 7 23 -5 36 -14 15 -14 19 0
32 12 12 14 37 12 113 -1 54 -3 119 -4 146 -1 60 -21 62 -21 3 0 -25 -4 -47
-9 -50 -13 -9 -25 -161 -13 -181 19 -35 -54 -299 -89 -321 -5 -3 -9 -16 -9
-28 0 -13 -7 -29 -15 -36 -8 -7 -15 -17 -15 -23 0 -5 -30 -43 -67 -84 -70 -77
-143 -168 -143 -177 0 -7 -60 -97 -77 -116 -25 -27 -83 -109 -83 -116 0 -3
-12 -21 -27 -39 -16 -18 -39 -47 -52 -64 -13 -17 -37 -35 -55 -39 -25 -7 -45
-29 -108 -123 -42 -63 -84 -123 -92 -134 -41 -51 -86 -121 -86 -132 0 -18 35
-16 50 2 7 8 20 15 30 15 10 0 23 7 30 15 15 18 142 105 154 105 4 0 23 12 41
26 19 14 63 36 99 48 36 13 72 28 80 35 7 6 45 17 83 25 37 7 78 18 91 25 17
9 27 9 45 0 43 -22 97 -99 69 -99 -4 0 -22 -13 -40 -29 -23 -21 -32 -39 -32
-60 0 -31 -21 -43 -35 -21 -11 17 -25 11 -25 -11 0 -20 -4 -21 -40 -15 -25 4
-40 2 -40 -4 0 -5 5 -10 10 -10 6 0 10 -4 10 -10 0 -5 -13 -10 -30 -10 -36 0
-71 -27 -62 -48 4 -12 0 -14 -21 -8 -22 5 -27 3 -27 -12 0 -18 -40 -45 -70
-46 -8 -1 -14 -7 -12 -15 4 -18 -27 -51 -48 -51 -10 0 -23 -7 -30 -15 -8 -10
-21 -13 -38 -8 -21 5 -24 3 -19 -11 4 -11 1 -16 -12 -16 -21 0 -111 -58 -118
-77 -3 -7 -10 -13 -17 -13 -21 0 -88 -90 -83 -111 3 -10 1 -22 -4 -25 -16 -9
-10 -23 14 -29 21 -6 86 15 111 36 21 17 265 139 278 139 29 0 187 98 217 134
7 9 19 16 25 16 6 0 28 11 48 25 55 37 76 34 76 -12 0 -39 -22 -142 -37 -178
-5 -11 -13 -38 -17 -60 -9 -39 -11 -40 -53 -43 -28 -2 -47 1 -53 10 -6 9 -8 8
-6 -6 4 -26 -65 -66 -114 -66 -46 0 -49 -17 -8 -33 21 -8 30 -18 30 -34 0 -22
-4 -23 -72 -23 -57 0 -83 5 -120 24 -26 13 -49 22 -51 19 -3 -2 3 -36 11 -74
12 -55 13 -83 5 -120 -5 -28 -6 -52 -2 -55 7 -4 12 -30 23 -132 4 -42 3 -44
-30 -58 -41 -17 -116 -3 -151 29 -22 19 -53 18 -53 -3 0 -6 11 -16 25 -22 14
-6 25 -15 25 -20 0 -4 15 -8 34 -8 22 0 36 -6 40 -16 4 -11 13 -14 30 -10 14
3 27 2 30 -2 3 -5 6 -44 7 -88 2 -54 8 -90 21 -114 14 -27 18 -57 18 -140 0
-58 -3 -122 -7 -143 -5 -34 -9 -38 -32 -35 -14 2 -30 12 -36 23 -5 12 -20 32
-33 45 -13 14 -37 46 -54 72 -33 53 -43 58 -53 28 -3 -11 -12 -20 -20 -20 -7
0 -15 -6 -18 -14 -14 -36 -107 -26 -107 11 0 9 -10 27 -22 40 l-23 24 20 37
c16 29 26 37 48 37 15 1 37 10 48 22 l21 20 -25 25 c-25 25 -47 83 -47 124 0
11 -8 36 -17 55 -18 36 -20 39 -57 81 -13 14 -34 48 -46 75 -13 26 -30 52 -37
56 -7 4 -13 15 -13 22 0 8 -6 15 -14 15 -7 0 -19 12 -25 28 -6 15 -45 63 -87
107 -41 44 -89 99 -107 122 -18 23 -37 43 -43 43 -5 0 -25 16 -44 35 -19 19
-39 35 -46 35 -21 0 -134 71 -154 98 -18 22 -20 40 -20 166 1 188 6 208 75
273 31 29 60 53 65 53 6 0 10 4 10 9 0 5 16 15 35 22 36 13 46 33 21 42 -11 5
-13 14 -6 39 4 18 11 67 14 108 7 85 23 175 35 205 5 11 29 83 54 160 25 77
61 174 81 216 20 42 36 79 36 82 0 3 20 40 45 80 25 41 45 80 45 86 0 6 5 11
10 11 6 0 10 6 10 13 0 6 19 41 42 77 55 84 78 135 78 170 0 16 7 30 15 34 8
3 15 15 15 26 0 11 14 34 30 50 17 16 30 33 30 39 0 5 7 11 15 15 17 6 20 26
5 26 -16 0 -80 -62 -80 -77 0 -7 -7 -16 -15 -19 -8 -4 -15 -18 -15 -34 0 -16
-7 -30 -15 -34 -8 -3 -15 -14 -15 -24 0 -10 -11 -39 -25 -63 -14 -24 -28 -51
-32 -59 -3 -8 -25 -40 -48 -70 -23 -30 -45 -62 -49 -70 -12 -27 -30 -54 -72
-110 -22 -30 -49 -77 -59 -105 -9 -27 -43 -104 -75 -170 -32 -66 -61 -131 -65
-145 -3 -14 -10 -34 -15 -45 -41 -92 -50 -115 -50 -124 0 -6 -4 -11 -9 -11 -5
0 -12 -9 -16 -19 -6 -21 -82 -101 -96 -101 -19 0 -22 75 -4 125 16 42 19 82
19 256 1 176 3 210 17 225 9 11 20 29 23 42 4 12 12 22 17 22 5 0 9 9 9 19 0
11 6 32 14 48 8 15 22 54 32 86 9 31 23 62 31 68 7 6 13 19 13 29 0 10 20 40
43 66 24 27 55 67 69 89 42 68 78 135 78 147 0 22 53 80 86 94 18 7 36 24 40
36 9 29 111 156 136 169 21 11 15 29 -9 29 -9 0 -40 -18 -69 -41 -39 -30 -58
-39 -74 -34 -29 9 -70 -2 -70 -19 0 -8 -16 -16 -40 -20 -23 -3 -57 -15 -77
-26 -32 -17 -39 -18 -53 -5 -13 12 -25 10 -88 -16 -41 -16 -92 -29 -115 -29
-46 0 -87 -22 -87 -46 0 -20 -55 -75 -107 -108 -24 -14 -43 -32 -43 -39 0 -6
-8 -3 -16 8 -22 28 -13 146 15 209 12 25 24 60 28 76 4 24 2 30 -12 30 -10 0
-26 -7 -36 -16 -14 -13 -22 -13 -39 -4 -12 6 -55 13 -96 15 l-74 3 -1 -36 c-1
-21 -1 -41 0 -46 5 -27 7 -116 3 -116 -3 0 -14 7 -24 17 -18 16 -24 53 -10 67
4 4 7 36 7 71 1 62 0 64 -30 72 -23 7 -31 15 -33 36 -6 47 -27 24 -34 -36 -8
-60 -28 -129 -52 -176 -20 -38 -76 -91 -97 -91 -10 0 -22 -7 -27 -16 -7 -12
-17 -15 -33 -11 -31 8 -66 100 -54 144 4 15 7 57 6 93 -1 36 2 77 8 90 8 21
10 17 10 -28 1 -29 5 -51 10 -48 8 5 13 28 25 116 15 111 24 133 80 197 15 17
22 20 33 12 17 -15 16 -59 -2 -134 -17 -71 -19 -119 -5 -110 6 3 10 14 10 24
0 10 7 24 15 31 8 7 15 19 15 26 0 8 11 32 25 54 18 29 35 42 63 50 21 5 47
19 57 30 14 16 31 20 79 20 73 0 129 24 134 57 5 34 -37 46 -124 38 -40 -4
-74 -3 -77 3 -4 5 3 44 13 88 11 43 20 88 20 100 0 11 9 29 20 39 18 16 25 17
63 5 23 -7 57 -19 74 -27 20 -8 46 -11 67 -8 28 6 36 3 49 -16 11 -15 13 -27
7 -40 -15 -26 -12 -31 12 -27 13 2 24 11 26 23 2 11 16 30 30 43 26 23 61 26
102 9 11 -5 20 8 35 56 23 69 41 81 75 45 20 -22 20 -23 3 -31 -18 -8 -70 -94
-62 -100 2 -2 20 -13 39 -24 85 -51 135 -73 165 -73 20 0 35 -6 39 -15 3 -9
18 -15 36 -15 16 0 30 -4 30 -9 0 -5 14 -14 31 -20 24 -8 37 -7 60 5 37 19 57
9 34 -16 -27 -30 -16 -63 25 -73 42 -10 156 -25 225 -31 28 -2 61 -8 76 -14
31 -12 71 -6 127 20 41 20 42 20 42 71 0 29 4 78 10 110 14 85 -5 119 -74 135
-73 17 -85 15 -96 -14 -6 -14 -19 -28 -30 -31 -11 -3 -20 -9 -20 -14 0 -5 -11
-9 -24 -9 -13 0 -29 -7 -36 -15 -7 -8 -19 -15 -26 -15 -8 0 -14 -8 -14 -18 0
-10 -6 -27 -14 -38 -13 -16 -12 -21 1 -36 14 -16 14 -18 -3 -24 -11 -3 -27
-10 -36 -15 -10 -5 -29 -9 -44 -9 -21 0 -24 3 -19 21 12 38 69 107 96 117 16
6 40 32 60 66 25 41 43 59 71 71 21 8 38 21 38 28 0 22 77 44 101 29 18 -12
19 -10 13 29 -6 34 -4 45 11 56 22 16 122 17 227 3z m-1312 -117 c-1 -14 -27
-43 -39 -43 -12 0 -15 32 -4 43 9 9 43 9 43 0z m340 -10 c0 -20 -28 -53 -47
-53 -16 0 -17 16 -3 25 8 5 8 11 1 19 -14 16 -4 26 26 26 15 0 23 -6 23 -17z
m-694 -85 c-4 -18 -13 -41 -20 -51 -14 -18 -107 -57 -137 -57 -10 0 -40 -12
-68 -27 -28 -14 -54 -24 -57 -21 -8 9 20 90 34 95 6 3 12 15 12 28 0 13 7 26
16 29 8 3 12 10 9 16 -9 14 -45 12 -49 -2 -25 -87 -38 -120 -55 -137 -12 -12
-21 -28 -21 -37 0 -9 -11 -29 -25 -46 -14 -16 -25 -37 -25 -46 -1 -36 -18 13
-24 70 -8 62 11 118 57 174 13 16 27 37 30 48 6 15 10 16 23 5 13 -10 20 -10
36 0 11 7 32 10 46 7 15 -3 65 -2 112 2 100 9 116 2 106 -50z m912 47 c23 -4
42 -8 42 -10 0 -18 -138 -155 -156 -155 -22 0 -17 61 10 112 19 35 22 49 13
58 -9 9 -5 11 18 7 17 -3 49 -9 73 -12z m-1000 -258 c-7 -14 -13 -17 -16 -9
-6 19 6 44 18 37 7 -4 6 -14 -2 -28z m1298 -3 c19 -20 22 -29 14 -45 -6 -10
-17 -19 -25 -19 -17 0 -20 16 -5 25 15 10 12 35 -5 35 -8 0 -15 7 -15 15 0 21
9 19 36 -11z m-1087 -470 c41 -52 20 -78 -27 -34 -20 18 -30 34 -26 44 9 24
30 19 53 -10z m-46 -221 c-3 -7 -9 -13 -14 -13 -11 0 -12 34 -2 43 9 10 22
-13 16 -30z m75 -234 c-2 -24 -7 -44 -13 -44 -12 0 -19 69 -10 93 11 29 26 -4
23 -49z m247 -79 c13 -22 -45 -84 -62 -67 -7 7 36 77 47 77 5 0 12 -5 15 -10z
m-245 -41 c46 -10 104 -36 151 -67 15 -9 54 -35 88 -57 33 -22 61 -43 61 -48
0 -4 -10 -12 -22 -17 -24 -10 -32 -15 -106 -62 -64 -41 -82 -38 -82 15 0 24
-7 52 -15 63 -8 10 -15 26 -15 35 0 23 -63 69 -94 69 -26 0 -56 -23 -56 -43 0
-7 11 -34 24 -62 19 -39 26 -46 31 -32 12 29 35 20 35 -13 0 -16 -4 -30 -9
-30 -5 0 -16 -3 -25 -6 -11 -4 -16 -1 -16 10 0 9 -7 19 -16 23 -9 3 -27 16
-41 29 -14 13 -40 28 -58 34 -43 14 -49 33 -26 78 23 44 46 66 86 80 39 13 51
14 105 1z m-240 -961 c35 -48 37 -64 9 -73 -33 -11 -59 21 -59 72 0 23 4 43
10 43 5 0 23 -19 40 -42z m2621 -29 c-2 -8 -3 -18 -2 -24 8 -50 12 -118 7
-132 -6 -14 -8 -14 -24 1 -10 9 -24 16 -30 16 -14 0 -16 36 -3 45 5 3 15 30
21 61 7 34 16 53 23 51 7 -3 10 -11 8 -18z m-2480 -84 c62 -40 78 -99 29 -112
-11 -3 -18 -9 -15 -13 9 -15 43 2 49 23 6 20 7 20 17 5 13 -23 -14 -66 -44
-70 -16 -2 -22 -10 -23 -31 -1 -38 -12 -45 -20 -13 -3 15 -26 52 -50 83 -24
31 -44 60 -44 64 0 4 10 9 22 11 25 3 41 45 25 66 -16 20 10 14 54 -13z m4360
-111 c13 -96 80 -438 101 -514 5 -19 8 -57 6 -85 l-3 -50 105 -10 c110 -11
150 -24 150 -53 0 -9 6 -46 15 -82 16 -72 45 -321 45 -389 0 -24 7 -73 15
-110 22 -100 36 -171 44 -226 4 -27 12 -61 18 -75 24 -59 32 -95 24 -103 -20
-20 -71 5 -106 50 -29 38 -35 54 -35 94 0 110 -31 204 -97 290 -52 69 -250
260 -355 342 l-78 60 -1 66 c-1 36 -1 167 0 291 2 194 5 234 23 290 33 107
102 270 113 267 6 -2 13 -26 16 -53z m-2029 -19 c13 -28 -5 -64 -46 -90 -13
-9 -27 -28 -31 -43 -9 -36 -34 -62 -60 -62 -11 0 -26 -5 -32 -11 -15 -15 -37
-1 -24 15 8 9 5 24 -9 51 -11 22 -20 45 -20 52 0 21 58 73 81 73 12 0 32 9 46
20 37 29 81 26 95 -5z m-2562 -186 c0 -10 -4 -19 -9 -19 -12 0 -23 29 -15 41
8 14 24 0 24 -22z m2318 -11 c2 -4 9 -8 16 -8 6 0 20 -15 31 -32 10 -18 27
-42 38 -53 10 -11 28 -38 39 -60 11 -22 22 -41 23 -43 1 -1 14 2 27 9 21 9 32
7 68 -13 24 -13 57 -40 73 -60 27 -34 29 -42 31 -130 l1 -93 -34 3 -34 4 8
-44 c5 -24 9 -69 10 -101 2 -47 0 -57 -13 -55 -8 2 -21 21 -29 42 -7 22 -20
47 -28 56 -8 9 -15 23 -15 32 0 8 -8 26 -17 39 -23 31 -41 60 -50 79 -4 8 -19
26 -34 40 -25 24 -129 164 -129 175 0 11 36 4 54 -10 23 -17 44 -19 66 -5 22
14 -12 46 -63 59 -47 12 -117 69 -117 95 0 10 -4 25 -10 35 -14 28 23 63 58
55 15 -4 29 -11 30 -16z m372 -117 c0 -33 -3 -66 -6 -75 -11 -28 -24 -17 -24
18 0 43 -25 72 -46 55 -10 -8 -18 -9 -25 -2 -16 16 40 63 73 63 27 0 28 -1 28
-59z m-653 -253 c34 1 55 -3 63 -13 10 -12 9 -15 -6 -15 -11 0 -25 -9 -32 -21
-11 -17 -16 -18 -28 -8 -21 17 -25 8 -14 -32 5 -18 12 -46 15 -61 6 -33 22
-37 27 -6 5 35 26 33 30 -4 4 -41 34 -51 47 -16 5 13 16 30 25 37 9 7 16 19
16 26 0 20 -31 27 -50 10 -21 -19 -30 -19 -30 1 0 20 39 53 63 54 9 0 17 -7
17 -15 0 -8 7 -15 15 -15 14 0 34 -8 125 -49 25 -11 70 -44 101 -73 43 -42 57
-63 62 -94 10 -62 32 -133 45 -146 7 -7 12 -20 12 -31 0 -10 20 -42 45 -70 38
-43 45 -58 45 -92 0 -23 4 -45 9 -50 5 -6 11 -33 15 -62 5 -40 3 -55 -9 -67
-15 -14 -15 -18 -1 -38 20 -28 20 -33 1 -52 -10 -10 -17 -39 -19 -78 -2 -35
-11 -79 -19 -98 l-16 -35 -1 48 c0 27 -5 57 -11 68 -8 15 -6 25 10 46 26 32
26 45 2 67 -15 13 -18 26 -14 51 7 44 -9 51 -37 15 -12 -16 -27 -27 -31 -24
-5 3 -9 32 -9 65 0 44 -4 61 -15 65 -8 4 -15 18 -15 34 0 16 -7 30 -15 34 -8
3 -15 15 -15 26 0 11 -4 20 -9 20 -14 0 -23 33 -11 40 5 3 9 26 7 51 -2 37 -7
45 -25 47 -25 4 -27 -6 -10 -43 6 -14 8 -28 5 -32 -11 -10 -47 28 -47 49 0 29
-19 58 -33 52 -7 -2 -26 7 -41 21 -15 14 -31 25 -37 25 -5 0 -9 7 -9 15 0 8
-4 15 -9 15 -5 0 -13 10 -17 22 -3 12 -16 30 -28 41 l-21 18 28 -4 c30 -5 31
-4 16 24 -7 15 -7 24 1 34 15 18 5 35 -21 35 -21 0 -25 -20 -9 -36 16 -16 -12
-35 -58 -41 -42 -6 -66 12 -41 28 10 6 5 9 -16 7 -16 -1 -40 4 -52 10 -12 7
-31 12 -43 12 -29 0 -120 30 -120 40 0 13 93 54 117 51 24 -2 38 25 27 53 -5
14 -14 16 -46 11 -39 -7 -39 -7 -32 22 10 43 14 46 48 37 17 -4 54 -7 83 -6z
m3603 -23 c6 -8 21 -13 31 -12 12 1 27 -10 39 -29 l20 -31 -21 -26 c-11 -15
-18 -31 -14 -37 3 -5 3 -26 -1 -45 -4 -26 -11 -35 -21 -31 -15 6 -51 -11 -69
-34 -10 -12 -14 -12 -29 0 -16 13 -17 13 -11 -6 3 -11 0 -34 -8 -50 -16 -33
-15 -119 2 -136 8 -8 15 -8 26 1 10 9 16 9 21 1 4 -7 -2 -18 -14 -26 -25 -18
-27 -40 -6 -60 8 -9 15 -24 15 -35 0 -11 7 -22 15 -25 8 -4 15 -12 15 -20 0
-16 -21 -19 -36 -4 -14 14 -54 0 -55 -19 0 -9 -5 -2 -11 14 -5 17 -9 44 -9 62
1 23 -4 33 -19 38 -11 3 -20 11 -20 18 0 6 -10 21 -22 34 -16 17 -22 36 -22
66 0 29 -6 46 -18 55 -22 16 -23 30 -1 54 15 17 15 19 -2 32 -10 7 -15 18 -11
24 3 6 1 21 -5 35 -9 21 -6 28 25 62 20 21 36 45 36 54 0 16 61 51 89 51 7 0
24 9 38 20 31 24 37 25 53 5z m-4690 -14 c0 -10 -9 -21 -19 -24 -26 -6 -33 1
-20 24 13 25 39 24 39 0z m1710 -181 c0 -10 -4 -21 -9 -25 -12 -7 -25 31 -16
45 9 15 25 2 25 -20z m-2473 -39 c-3 -15 -9 -52 -12 -82 -8 -72 -36 -170 -46
-163 -5 3 -9 37 -9 76 0 83 34 198 58 198 11 0 13 -7 9 -29z m5498 -23 c16
-39 11 -52 -15 -38 -13 7 -21 7 -25 0 -12 -20 -35 -10 -35 15 0 16 6 25 15 25
9 0 18 7 21 15 10 24 24 17 39 -17z m-3027 -112 c2 -62 -1 -106 -6 -106 -35 0
-51 109 -27 175 10 24 21 43 24 41 4 -3 8 -52 9 -110z m-859 80 c13 -7 33 -11
44 -8 18 5 20 2 14 -32 -5 -32 -3 -38 18 -46 12 -5 26 -14 30 -20 3 -5 10 -8
15 -5 6 4 4 14 -2 25 -11 16 -9 22 7 34 27 21 55 19 83 -3 29 -25 29 -43 -2
-35 -14 3 -32 2 -41 -4 -14 -7 -9 -11 24 -19 35 -9 43 -8 50 5 8 15 12 15 47
0 22 -9 50 -20 63 -23 20 -6 22 -11 17 -37 -3 -17 -1 -37 5 -44 7 -9 6 -20 -7
-39 -16 -25 -16 -27 7 -51 19 -20 30 -24 54 -20 16 4 34 11 39 16 5 5 1 7 -11
4 -31 -8 -46 17 -31 53 7 16 18 29 23 27 6 -1 22 -5 36 -8 28 -6 79 -49 79
-67 0 -6 14 -28 30 -49 17 -21 30 -45 30 -53 0 -8 7 -20 15 -27 17 -14 21
-110 5 -110 -5 0 -10 13 -10 29 0 17 -4 32 -9 35 -9 6 -18 -92 -21 -224 -2
-83 -12 -110 -40 -110 -18 0 -20 5 -16 44 3 25 9 53 15 65 15 28 14 74 -3 97
-8 10 -11 23 -6 29 5 5 10 34 11 64 3 49 1 54 -24 68 -15 7 -32 11 -37 8 -6
-3 -10 -2 -10 4 0 13 -52 41 -75 41 -9 0 -22 -13 -28 -30 -13 -36 -34 -39 -46
-7 -5 12 -39 49 -76 82 -37 33 -71 70 -76 83 -5 12 -19 26 -31 31 -13 5 -33
18 -45 30 -12 11 -33 23 -48 27 -15 4 -29 13 -32 21 -4 11 -15 13 -38 9 -43
-8 -85 8 -85 33 0 11 4 22 9 26 5 3 7 21 4 41 -8 52 24 69 76 40z m3811 -68
c0 -5 -4 -8 -10 -8 -5 0 -10 10 -10 23 0 18 2 19 10 7 5 -8 10 -18 10 -22z
m-4416 -146 c8 -68 -5 -85 -31 -40 -13 23 -18 46 -15 75 4 37 6 41 22 31 12
-8 20 -30 24 -66z m3956 43 c6 -8 8 -20 4 -26 -5 -9 -11 -7 -21 6 -23 33 -9
51 17 20z m-4805 -153 l28 -33 -20 -42 c-12 -23 -24 -64 -28 -90 -3 -26 -12
-64 -19 -84 l-12 -36 -20 34 c-11 19 -30 63 -43 99 -12 36 -27 73 -32 82 -5
10 -9 22 -9 28 0 17 54 89 70 93 22 5 54 -14 85 -51z m1943 -146 c8 -19 6 -31
-14 -65 -14 -22 -30 -41 -35 -41 -17 0 -23 32 -7 44 8 6 18 28 22 49 8 43 18
47 34 13z m-413 -116 c0 -14 6 -40 14 -59 14 -32 13 -35 -8 -52 -39 -32 -53
-15 -47 59 6 71 -5 93 -34 67 -9 -8 -31 -18 -48 -21 l-32 -6 0 71 0 71 78 -53
c61 -42 77 -57 77 -77z m-1369 73 c-7 -17 -8 -17 -17 0 -12 21 -2 44 13 29 6
-6 8 -19 4 -29z m1772 -94 c-2 -6 -8 -10 -13 -10 -5 0 -11 4 -13 10 -2 6 4 11
13 11 9 0 15 -5 13 -11z m62 -16 c0 -40 -11 -74 -21 -67 -5 3 -9 25 -9 50 0
32 4 44 15 44 10 0 15 -10 15 -27z m3065 18 c7 -12 -12 -24 -25 -16 -11 7 -4
25 10 25 5 0 11 -4 15 -9z m-2850 -41 c0 -8 -10 -16 -22 -18 -22 -3 -32 16
-16 32 12 11 38 2 38 -14z m2833 -55 c12 -14 26 -25 32 -25 5 0 10 -9 10 -20
0 -11 7 -20 15 -20 18 0 20 31 3 48 -20 20 -1 25 21 5 16 -13 21 -29 21 -69 0
-43 5 -57 29 -83 20 -22 38 -31 60 -31 35 0 41 14 11 30 -23 12 -27 40 -6 40
7 0 19 -7 26 -15 7 -8 18 -15 26 -15 12 0 34 -29 34 -44 0 -3 -13 -6 -29 -6
-21 0 -32 -6 -36 -20 -9 -27 1 -40 30 -40 13 0 27 -4 30 -10 3 -5 21 -10 40
-10 18 0 41 -7 50 -16 15 -15 18 -15 36 4 10 12 19 26 19 32 0 14 -17 13 -23
-2 -3 -10 -7 -10 -20 1 -9 7 -26 11 -36 8 -24 -6 -57 16 -47 31 4 7 17 12 29
12 36 0 53 29 49 80 -5 62 19 85 69 68 46 -17 44 -15 29 -44 -18 -32 -6 -41
63 -50 53 -7 61 -15 52 -44 -5 -16 -15 -20 -50 -20 -34 0 -47 -5 -59 -22 -21
-30 -20 -38 4 -38 10 0 25 -10 31 -22 10 -18 8 -24 -7 -35 -10 -7 -25 -11 -34
-7 -41 16 -81 16 -99 0 -10 -9 -25 -14 -35 -10 -11 4 -22 0 -30 -12 -11 -14
-17 -16 -28 -7 -11 10 -21 8 -46 -7 -31 -19 -43 -40 -22 -40 6 0 10 4 10 9 0
10 121 8 137 -2 6 -4 11 -34 11 -67 0 -67 -11 -75 -55 -40 -31 24 -43 18 -43
-21 0 -22 6 -32 24 -39 22 -8 23 -11 13 -34 -15 -33 -30 -33 -52 2 -10 15 -46
56 -81 92 -35 36 -71 76 -80 90 -10 14 -34 43 -55 65 -62 65 -139 158 -139
166 0 21 21 16 43 -11 14 -16 37 -34 51 -40 14 -5 26 -16 26 -25 0 -9 9 -15
24 -15 18 0 27 -8 34 -27 9 -26 10 -26 17 -8 5 11 15 28 23 37 13 15 12 19 -2
33 -9 9 -16 23 -16 32 0 11 -7 13 -30 8 -26 -6 -30 -4 -30 14 0 12 -4 21 -10
21 -5 0 -10 10 -10 22 0 21 0 21 15 2 13 -16 16 -17 25 -4 15 22 8 54 -14 58
-10 2 -23 -3 -28 -12 -5 -9 -15 -16 -23 -16 -7 0 -15 -6 -18 -12 -2 -7 -8 -9
-13 -5 -5 4 -2 12 6 17 10 6 11 12 3 22 -13 16 -27 113 -18 128 10 16 19 12
43 -15z m152 -9 c-14 -14 -24 0 -16 21 6 15 8 15 16 3 6 -9 5 -19 0 -24z
m-3260 7 c0 -10 3 -35 6 -55 5 -31 4 -38 -10 -38 -18 0 -18 -2 -21 63 -2 34 1
47 11 47 8 0 14 -8 14 -17z m3355 -58 c0 -22 -5 -40 -12 -42 -8 -3 -13 4 -13
18 0 12 -7 30 -15 39 -9 10 -13 25 -9 34 6 15 9 15 28 3 15 -11 21 -25 21 -52z
m75 24 c7 -11 9 -23 6 -27 -3 -3 -6 0 -6 6 0 6 -9 14 -20 17 -23 7 -27 25 -5
25 8 0 19 -9 25 -21z m-3519 -74 c22 -7 22 -8 5 -21 -13 -9 -16 -19 -11 -31
11 -24 7 -44 -12 -65 -14 -16 -14 -18 1 -24 11 -4 16 -18 16 -45 0 -41 8 -46
42 -28 17 9 24 8 33 -5 7 -9 17 -16 24 -16 25 0 9 -19 -29 -34 -51 -20 -158
-21 -184 -1 -14 11 -23 12 -33 4 -9 -8 -14 -7 -19 4 -10 27 0 52 20 49 11 -2
20 4 23 17 3 11 14 23 24 26 10 4 26 13 34 21 13 13 13 20 -1 55 -15 36 -15
41 0 64 9 13 16 33 16 43 0 28 13 36 21 13 4 -10 18 -22 30 -26z m-306 4 c0
-18 -6 -25 -24 -27 -16 -3 -21 0 -17 10 3 7 9 21 12 31 9 25 29 15 29 -14z
m3383 -32 c2 -10 -3 -17 -12 -17 -10 0 -16 9 -16 21 0 24 23 21 28 -4z m-2962
-107 c-1 -52 -17 -68 -50 -50 -42 22 -45 60 -6 60 13 0 17 5 14 15 -5 11 1 15
18 15 22 0 24 -4 24 -40z m-536 5 c0 -8 -4 -15 -10 -15 -5 0 -10 7 -10 15 0 8
5 15 10 15 6 0 10 -7 10 -15z m129 -54 c-1 -9 -4 -26 -8 -39 l-6 -23 -28 29
c-22 23 -26 34 -21 60 l6 31 29 -21 c16 -12 29 -29 28 -37z m586 9 c-5 -8 -11
-8 -17 -2 -6 6 -7 16 -3 22 5 8 11 8 17 2 6 -6 7 -16 3 -22z m-822 -84 c12
-10 17 -27 17 -64 0 -28 6 -71 14 -94 14 -42 36 -215 39 -308 l2 -45 -50 1
c-27 1 -63 9 -80 18 -16 9 -44 16 -61 16 -42 0 -48 9 -22 38 22 23 22 24 5 37
-11 8 -26 11 -35 8 -12 -5 -14 -2 -8 13 5 10 11 28 14 39 3 11 14 35 23 52 10
18 16 40 13 48 -4 8 5 30 18 48 14 17 28 42 32 55 4 12 12 22 17 22 5 0 9 8 9
18 0 10 7 28 16 40 10 14 14 32 10 48 -7 27 0 30 27 10z m831 8 c18 -7 22 -44
5 -44 -7 0 -22 11 -35 25 -21 23 -21 25 -4 25 10 0 25 -3 34 -6z m3312 -62
c-12 -11 -36 9 -36 30 l1 23 20 -24 c11 -13 17 -26 15 -29z m-4453 -48 c9 -10
-12 -46 -24 -39 -14 9 -11 45 4 45 8 0 17 -3 20 -6z m4432 -211 c3 -16 17 -45
31 -66 31 -47 30 -80 -1 -47 -11 12 -32 33 -47 48 -16 15 -28 35 -28 45 0 9
-7 20 -15 23 -27 11 -16 24 19 24 29 0 35 -4 41 -27z m70 -22 c0 -23 -23 -24
-35 -1 -10 19 -9 21 12 18 13 -2 23 -9 23 -17z m-5395 -161 c0 -55 -4 -60 -20
-29 -9 15 -8 24 0 35 7 7 10 21 6 29 -3 8 -1 15 4 15 6 0 10 -22 10 -50z
m-1730 -97 c-1 -14 -27 -43 -33 -37 -7 7 14 44 25 44 5 0 8 -3 8 -7z m6398
-60 c-33 -68 -48 -82 -48 -44 0 33 11 51 32 51 11 0 18 -3 16 -7z m144 -19 c6
-6 -35 -54 -46 -54 -11 0 -7 35 6 48 13 13 31 16 40 6z m1431 -60 c3 -3 1 -15
-6 -25 -8 -14 -9 -21 0 -30 13 -13 5 -49 -11 -49 -6 0 -12 22 -13 55 -2 40 1
55 10 55 8 0 16 -3 20 -6z m-7326 -31 c-9 -9 -20 -13 -24 -9 -4 4 1 14 11 22
25 18 35 8 13 -13z m5917 12 c-4 -8 -10 -15 -15 -15 -5 0 -9 -9 -9 -19 0 -12
-7 -20 -17 -20 -10 0 -34 -4 -53 -8 -33 -8 -35 -11 -35 -52 -1 -37 -6 -47 -35
-72 -56 -46 -84 -34 -35 15 35 35 32 44 -20 58 -49 13 -52 19 -26 63 20 34 59
50 46 19 -14 -33 -11 -58 7 -62 16 -3 58 30 58 45 0 4 10 17 22 30 l22 23 23
-22 c22 -21 23 -21 23 -1 0 24 8 33 31 33 12 0 16 -5 13 -15z m1436 -185 c8
-5 11 -12 8 -16 -10 -9 -38 3 -38 16 0 12 10 13 30 0z m-1674 -49 c5 -5 18
-11 29 -13 16 -3 20 -11 20 -42 0 -36 3 -40 33 -48 44 -12 31 -28 -24 -28 -26
0 -44 -5 -44 -11 0 -14 -30 -38 -47 -39 -7 0 -17 9 -23 20 -9 17 -7 22 15 32
27 12 33 36 13 56 -10 10 -10 17 -1 31 10 16 8 22 -10 35 l-22 15 26 0 c14 1
29 -3 35 -8z m354 -31 c-19 -13 -30 -13 -30 0 0 6 10 10 23 10 18 0 19 -2 7
-10z m115 -30 c4 -6 -8 -10 -29 -10 -20 0 -36 5 -36 10 0 6 13 10 29 10 17 0
33 -4 36 -10z m-606 -146 c2 -2 -17 -4 -43 -4 -30 0 -45 4 -41 10 6 9 72 4 84
-6z m61 -1 c0 -5 -5 -15 -10 -23 -7 -11 -12 -12 -21 -3 -6 6 -8 16 -5 22 8 12
36 15 36 4z m-305 -83 c0 -10 -12 -16 -37 -18 -42 -4 -50 9 -15 26 29 14 52
11 52 -8z m960 -70 c3 -5 4 -14 0 -20 -7 -11 -55 8 -55 22 0 11 48 10 55 -2z
m-4612 -314 c-10 -14 -22 -21 -26 -17 -13 13 4 41 25 41 18 0 18 -1 1 -24z
m197 -36 c0 -6 -8 -20 -19 -31 -16 -17 -19 -18 -24 -5 -4 9 1 22 9 31 18 17
34 20 34 5z m-257 -97 c9 3 19 2 22 -3 4 -6 45 -9 93 -8 l87 3 3 -27 3 -28
-75 0 c-45 0 -78 5 -82 11 -8 14 -100 5 -119 -11 -24 -20 -57 6 -53 42 2 25
10 33 38 42 31 11 37 10 51 -7 10 -12 23 -18 32 -14z m427 -33 c0 -6 -13 -10
-30 -10 -25 0 -30 4 -30 25 0 25 0 25 30 10 17 -9 30 -20 30 -25z m3421 -1
c22 -11 17 -29 -9 -29 -30 0 -92 21 -92 30 0 13 76 13 101 -1z m-1261 -158
c-13 -11 -28 -17 -33 -14 -13 8 14 33 37 33 20 0 20 -1 -4 -19z m-116 -45 c-7
-17 -44 -23 -44 -6 0 10 41 31 48 25 1 -1 0 -10 -4 -19z m-136 -38 c-5 -15
-58 -24 -58 -10 0 15 12 22 38 22 14 0 22 -5 20 -12z"/>
<path d="M3596 6525 c-5 -14 17 -28 28 -18 10 10 7 21 -8 26 -8 3 -17 0 -20
-8z"/>
<path d="M3970 6430 c0 -5 6 -10 14 -10 8 0 18 5 21 10 3 6 -3 10 -14 10 -12
0 -21 -4 -21 -10z"/>
<path d="M2279 6402 c-16 -7 -94 -102 -87 -106 2 -1 18 -7 35 -13 30 -10 35
-9 54 15 25 33 69 101 69 107 0 7 -53 5 -71 -3z"/>
<path d="M3834 6366 c-3 -9 -12 -16 -20 -16 -8 0 -14 -4 -14 -10 0 -17 26 -11
44 9 11 13 14 21 7 26 -6 3 -14 -1 -17 -9z"/>
<path d="M2195 6191 c-16 -7 -14 -9 14 -14 37 -8 61 1 40 14 -16 10 -27 10
-54 0z"/>
<path d="M4049 5780 c-3 -27 3 -125 7 -129 2 -2 7 -1 11 2 10 10 3 120 -8 132
-6 5 -9 4 -10 -5z"/>
<path d="M4470 5765 c0 -8 5 -15 10 -15 6 0 10 7 10 15 0 8 -4 15 -10 15 -5 0
-10 -7 -10 -15z"/>
<path d="M3333 5488 c-35 -49 -73 -125 -73 -146 0 -8 -9 -25 -20 -39 -11 -14
-20 -36 -20 -49 0 -26 -37 -94 -51 -94 -5 0 -9 -6 -9 -14 0 -7 -7 -19 -15 -26
-8 -7 -15 -23 -15 -35 0 -13 -10 -30 -24 -39 -14 -8 -28 -26 -31 -38 -4 -13
-25 -46 -46 -75 -22 -29 -39 -55 -39 -59 0 -4 -8 -16 -17 -26 -18 -20 -53
-119 -53 -150 0 -10 -6 -32 -14 -50 -59 -136 -69 -169 -58 -191 22 -46 20 -66
-8 -109 -22 -32 -26 -46 -19 -60 6 -12 6 -25 -1 -37 -5 -11 -10 -33 -10 -50 0
-28 -71 -163 -109 -205 -12 -14 -15 -35 -14 -93 4 -114 17 -152 60 -169 48
-20 72 -13 128 41 27 25 54 45 61 45 7 0 19 6 26 12 7 7 33 23 58 35 53 27
102 73 76 73 -9 0 -16 -4 -16 -10 0 -5 -4 -10 -10 -10 -5 0 -10 11 -10 24 0
14 5 28 10 31 6 3 10 18 10 33 0 15 6 38 13 52 17 34 41 100 67 190 37 126 83
256 93 266 4 4 7 17 7 28 0 12 7 30 15 40 20 26 20 76 0 76 -9 0 -15 -9 -15
-24 0 -13 -7 -29 -15 -36 -8 -7 -15 -18 -15 -25 0 -7 -8 -23 -18 -36 -16 -21
-32 -57 -62 -134 -15 -39 -39 -111 -60 -185 -12 -41 -26 -88 -31 -104 -5 -16
-9 -47 -9 -69 0 -37 -30 -102 -54 -119 -6 -4 -21 3 -34 15 -21 20 -23 28 -19
87 3 36 14 99 26 140 11 41 23 111 27 155 3 44 10 94 15 110 4 17 13 75 19
130 24 216 30 252 51 305 12 30 26 76 32 103 8 34 16 47 28 47 12 0 20 11 24
33 7 34 72 137 87 137 4 0 8 10 8 23 1 12 7 33 15 47 8 14 14 34 15 45 0 11
22 60 49 108 44 78 55 117 32 117 -4 0 -21 -19 -38 -42z"/>
<path d="M4334 5415 c-3 -8 -3 -19 1 -25 11 -18 25 -11 25 15 0 27 -17 34 -26
10z"/>
<path d="M4230 5051 c0 -12 29 -23 41 -15 18 10 9 24 -16 24 -14 0 -25 -4 -25
-9z"/>
<path d="M4138 4971 c-26 -25 -22 -31 17 -31 31 0 35 3 35 25 0 30 -26 33 -52
6z"/>
<path d="M3445 4961 c-6 -11 9 -23 19 -14 9 9 7 23 -3 23 -6 0 -12 -4 -16 -9z"/>
<path d="M3413 4915 c-3 -9 -3 -18 0 -21 9 -9 27 6 27 22 0 19 -19 18 -27 -1z"/>
<path d="M3385 4869 c-4 -6 -5 -13 -2 -16 7 -7 27 6 27 18 0 12 -17 12 -25 -2z"/>
<path d="M3325 4780 c-3 -5 -3 -15 1 -21 6 -11 23 6 24 24 0 10 -18 9 -25 -3z"/>
<path d="M3294 4705 c-3 -14 -4 -28 -1 -31 10 -10 27 7 27 26 0 30 -19 33 -26
5z"/>
<path d="M2661 4324 c-19 -19 -28 -34 -22 -34 12 0 71 53 71 64 0 13 -17 3
-49 -30z"/>
<path d="M3005 3483 c-10 -32 -34 -75 -52 -96 -18 -20 -33 -41 -33 -45 0 -14
45 -52 62 -52 20 0 78 83 78 111 0 11 4 28 9 37 5 9 12 36 16 60 l7 42 -34 0
c-32 0 -35 -3 -53 -57z"/>
<path d="M3172 3214 c4 -21 22 -23 26 -1 2 10 -3 17 -13 17 -10 0 -15 -6 -13
-16z"/>
<path d="M3055 3160 c-3 -6 1 -13 9 -16 9 -3 16 -17 16 -29 0 -32 20 -42 37
-20 20 28 16 55 -7 55 -11 0 -20 5 -20 10 0 13 -27 13 -35 0z"/>
<path d="M3318 3148 c17 -8 26 -8 34 0 9 9 4 12 -22 11 -33 0 -34 -1 -12 -11z"/>
<path d="M4216 3593 c-3 -3 -6 -24 -6 -45 0 -27 4 -38 15 -38 11 0 15 11 15
39 0 38 -10 57 -24 44z"/>
<path d="M4350 3569 c0 -11 5 -17 10 -14 6 3 10 13 10 21 0 8 -4 14 -10 14 -5
0 -10 -9 -10 -21z"/>
<path d="M4165 3251 c-6 -11 9 -23 19 -14 9 9 7 23 -3 23 -6 0 -12 -4 -16 -9z"/>
<path d="M4182 3206 c-15 -16 -19 -27 -12 -31 12 -7 39 22 40 43 0 16 -1 16
-28 -12z"/>
<path d="M7224 3246 c-8 -22 3 -33 18 -18 9 9 9 15 0 24 -9 9 -13 7 -18 -6z"/>
<path d="M7255 3170 c-10 -11 -14 -20 -9 -20 16 0 64 24 64 33 0 15 -38 6 -55
-13z"/>
<path d="M3554 3106 c-7 -19 3 -36 22 -36 10 0 14 8 12 22 -4 26 -26 36 -34
14z"/>
<path d="M4058 2819 c-26 -28 -22 -45 12 -59 24 -10 33 -10 45 0 20 17 19 43
-3 63 -23 21 -32 20 -54 -4z"/>
<path d="M7130 2370 c0 -5 7 -10 15 -10 8 0 15 5 15 10 0 6 -7 10 -15 10 -8 0
-15 -4 -15 -10z"/>
<path d="M7300 2170 c-10 -18 -8 -20 28 -20 38 0 69 19 55 33 -3 4 -21 7 -39
7 -23 0 -37 -6 -44 -20z"/>
<path d="M7336 2111 c-7 -10 22 -37 30 -28 9 8 -3 37 -15 37 -5 0 -12 -4 -15
-9z"/>
<path d="M7446 2001 c-25 -28 -13 -42 24 -29 25 8 28 13 20 29 -13 24 -22 24
-44 0z"/>
<path d="M7347 1994 c-8 -8 1 -24 13 -24 4 0 10 7 14 15 5 15 -14 21 -27 9z"/>
<path d="M6023 8740 c-37 -22 -52 -46 -46 -71 6 -23 59 -35 79 -18 16 13 58
89 52 94 -17 14 -58 12 -85 -5z"/>
<path d="M3777 8733 c-4 -3 -7 -12 -7 -19 0 -17 27 -7 34 12 5 14 -15 20 -27
7z"/>
<path d="M0 4173 c0 -28 3 -34 10 -23 13 20 13 47 0 55 -6 4 -10 -9 -10 -32z"/>
<path d="M0 3142 c0 -33 4 -51 10 -47 13 8 13 65 0 85 -7 11 -10 0 -10 -38z"/>
<path d="M30 2964 c0 -58 4 -74 20 -89 24 -22 24 -18 9 75 -15 92 -29 99 -29
14z"/>
<path d="M80 2955 c0 -25 4 -35 13 -32 6 2 12 16 12 32 0 16 -6 30 -12 33 -9
2 -13 -8 -13 -33z"/>
<path d="M62 2808 c2 -24 8 -42 13 -41 13 3 18 29 11 59 -11 40 -27 27 -24
-18z"/>
<path d="M86 2722 c-10 -16 8 -95 23 -100 11 -4 13 5 7 44 -6 49 -19 73 -30
56z"/>
<path d="M127 2604 c-12 -13 -7 -79 8 -98 8 -11 15 -37 15 -57 0 -21 5 -41 10
-44 13 -8 13 42 -1 124 -11 67 -20 87 -32 75z"/>
<path d="M180 2341 c0 -17 5 -31 10 -31 6 0 10 11 10 24 0 14 -4 28 -10 31 -6
4 -10 -7 -10 -24z"/>
<path d="M213 2244 c-3 -8 -1 -20 6 -27 8 -8 11 -4 11 16 0 30 -7 35 -17 11z"/>
<path d="M280 2050 c-9 -18 -6 -57 5 -70 7 -8 15 -28 18 -45 11 -57 32 -133
40 -141 14 -14 7 92 -8 112 -8 10 -15 25 -15 32 0 8 -6 28 -14 45 -8 18 -17
41 -19 52 -3 11 -6 18 -7 15z"/>
<path d="M1615 1481 c-3 -5 -1 -12 4 -16 13 -8 61 5 61 16 0 12 -57 12 -65 0z"/>
<path d="M7037 875 c-9 -21 2 -45 20 -45 10 0 13 9 11 27 -3 30 -23 41 -31 18z"/>
<path d="M7104 755 c-10 -8 -26 -15 -35 -15 -9 0 -22 -7 -29 -15 -15 -18 -57
-20 -63 -2 -6 17 -41 -4 -46 -29 -2 -10 -19 -34 -38 -53 -36 -35 -39 -51 -5
-30 21 13 57 5 47 -11 -3 -5 -17 -10 -31 -10 -13 0 -24 -3 -24 -7 0 -5 -18
-19 -40 -33 -42 -25 -51 -40 -25 -40 8 0 15 5 15 10 0 6 14 10 32 10 47 0 98
21 98 41 0 10 5 19 11 21 8 3 8 10 -2 25 -16 27 -14 28 34 37 29 5 37 4 37 -8
0 -18 16 -29 31 -21 7 5 5 13 -5 24 -12 14 -13 21 -3 41 7 14 21 26 32 28 11
2 27 10 35 18 9 7 26 11 38 7 25 -6 30 12 6 21 -26 10 -49 7 -70 -9z"/>
<path d="M2310 720 c0 -5 4 -10 9 -10 5 0 11 -9 14 -20 3 -11 12 -20 20 -20
10 0 13 7 10 20 -3 11 -12 20 -19 20 -8 0 -14 5 -14 10 0 6 -4 10 -10 10 -5 0
-10 -4 -10 -10z"/>
<path d="M6465 709 l-30 -19 28 0 c15 0 27 5 27 10 0 6 7 10 15 10 8 0 15 5
15 10 0 15 -21 11 -55 -11z"/>
<path d="M2566 698 c-21 -30 -20 -45 3 -51 13 -3 18 0 15 8 -3 7 -1 16 5 20
14 8 15 45 2 45 -6 0 -17 -10 -25 -22z"/>
<path d="M2433 685 c-8 -22 6 -33 17 -15 13 20 12 30 0 30 -6 0 -13 -7 -17
-15z"/>
<path d="M7225 671 c-6 -11 9 -23 19 -14 9 9 7 23 -3 23 -6 0 -12 -4 -16 -9z"/>
<path d="M2464 645 c-3 -8 -4 -20 -2 -27 3 -7 -1 -19 -9 -26 -17 -17 -17 -47
1 -61 17 -14 21 -8 31 39 4 19 12 41 17 47 13 17 3 43 -17 43 -9 0 -18 -7 -21
-15z"/>
<path d="M6195 640 c-8 -12 20 -24 35 -15 6 3 8 11 5 16 -8 12 -32 12 -40 -1z"/>
<path d="M7011 606 c-12 -14 -5 -26 16 -26 15 0 18 26 4 34 -5 3 -14 0 -20 -8z"/>
<path d="M7232 609 c2 -6 7 -10 11 -10 4 1 14 1 23 1 8 0 12 5 9 10 -8 13 -48
13 -43 -1z"/>
<path d="M2544 586 c-8 -22 3 -33 18 -18 9 9 9 15 0 24 -9 9 -13 7 -18 -6z"/>
<path d="M6554 579 c-10 -17 13 -36 27 -22 12 12 4 33 -11 33 -5 0 -12 -5 -16
-11z"/>
<path d="M6620 570 c0 -5 7 -10 15 -10 8 0 15 5 15 10 0 6 -7 10 -15 10 -8 0
-15 -4 -15 -10z"/>
<path d="M6022 513 c-14 -32 -4 -46 29 -41 19 2 25 10 27 36 3 28 0 32 -20 32
-15 0 -27 -9 -36 -27z"/>
<path d="M6445 519 c-5 -16 -13 -20 -31 -16 -17 3 -28 -3 -40 -20 -8 -14 -31
-31 -50 -39 -35 -15 -38 -34 -6 -34 9 0 26 -7 36 -15 11 -8 30 -15 42 -15 13
0 26 -4 29 -10 8 -13 52 -13 61 1 3 6 -1 18 -10 27 -14 14 -20 15 -37 3 -15
-9 -24 -10 -32 -2 -6 6 -19 11 -29 11 -29 0 -21 27 16 49 18 12 39 21 45 21 6
0 23 8 37 17 25 16 25 17 8 30 -24 18 -32 16 -39 -8z"/>
<path d="M2540 510 c0 -5 7 -10 15 -10 8 0 15 5 15 10 0 6 -7 10 -15 10 -8 0
-15 -4 -15 -10z"/>
<path d="M7066 484 c-10 -26 4 -37 25 -18 10 9 16 21 13 25 -9 15 -31 10 -38
-7z"/>
<path d="M6122 462 c-35 -30 -40 -42 -17 -42 26 0 65 31 65 51 0 25 -9 24 -48
-9z"/>
<path d="M6930 480 c0 -5 7 -10 15 -10 8 0 15 5 15 10 0 6 -7 10 -15 10 -8 0
-15 -4 -15 -10z"/>
<path d="M2327 463 c-11 -11 -8 -38 6 -58 13 -17 15 -16 30 15 10 18 17 37 17
42 0 10 -44 11 -53 1z"/>
<path d="M2106 435 c7 -17 20 -20 28 -6 3 5 -1 12 -10 15 -22 9 -24 8 -18 -9z"/>
<path d="M6625 370 c-9 -15 -1 -23 21 -18 15 3 16 4 1 16 -11 9 -17 10 -22 2z"/>
<path d="M5946 325 c-29 -29 -31 -36 -15 -52 8 -8 8 -25 1 -59 -6 -27 -9 -51
-6 -53 9 -10 55 21 66 44 7 16 19 25 35 25 25 0 30 -19 11 -39 -11 -10 -8 -11
14 -6 22 6 27 3 30 -16 5 -34 25 -34 55 0 15 17 35 31 45 31 28 0 21 29 -8 36
-18 5 -22 10 -15 17 12 12 85 -9 108 -31 17 -18 24 -12 17 14 -4 16 -12 20
-30 16 -19 -3 -24 0 -24 17 0 18 -6 21 -36 21 -23 0 -41 -6 -49 -17 -11 -14
-15 -15 -28 -4 -19 15 -38 6 -31 -14 10 -26 -25 -29 -45 -4 -20 24 -20 24 0
39 19 15 19 17 2 32 -34 29 -70 31 -97 3z m178 -104 c3 -5 -1 -12 -10 -15 -22
-9 -24 -8 -24 9 0 16 25 21 34 6z"/>
<path d="M2366 245 c-8 -32 -3 -40 19 -32 19 8 19 18 1 42 -12 17 -13 16 -20
-10z"/>
<path d="M5876 263 c-12 -12 -6 -33 9 -33 8 0 15 6 15 14 0 17 -14 28 -24 19z"/>
<path d="M1 133 l-1 -133 85 0 c79 0 86 2 101 25 21 32 13 42 -39 50 -64 11
-78 21 -44 34 34 13 29 26 -14 35 -25 5 -29 9 -24 25 5 15 -1 24 -24 35 -16 9
-32 26 -34 38 -2 13 -5 -37 -6 -109z"/>
<path d="M5591 227 c-9 -11 -8 -17 4 -27 19 -16 47 -5 43 17 -4 23 -31 28 -47
10z"/>
<path d="M5688 223 c-10 -10 -31 -31 -47 -48 l-30 -29 -26 24 -25 24 -28 -27
c-16 -15 -33 -27 -40 -27 -23 0 -12 -18 24 -39 58 -34 70 -30 162 58 32 30 37
32 47 17 7 -9 21 -16 31 -16 15 0 16 -2 5 -9 -9 -6 -11 -16 -7 -27 7 -17 9
-17 19 -3 7 8 20 20 31 26 17 9 15 12 -17 32 -19 11 -38 21 -42 21 -4 0 -14 9
-23 20 -16 20 -18 20 -34 3z"/>
<path d="M6210 184 c0 -11 8 -14 27 -12 39 4 42 28 4 28 -21 0 -31 -5 -31 -16z"/>
<path d="M2485 170 c-4 -6 -3 -16 3 -22 6 -6 12 -6 17 2 4 6 3 16 -3 22 -6 6
-12 6 -17 -2z"/>
<path d="M5973 143 c-22 -8 -14 -32 12 -39 32 -8 39 -2 30 25 -6 21 -18 24
-42 14z"/>
<path d="M6187 134 c-14 -14 -7 -25 13 -22 12 2 21 8 21 13 0 12 -24 18 -34 9z"/>
<path d="M263 65 c-8 -23 0 -26 37 -13 30 10 32 12 14 19 -30 12 -44 10 -51
-6z"/>
<path d="M5421 66 c-10 -11 -8 -16 8 -21 12 -3 21 -11 21 -16 0 -12 -27 -12
-35 1 -10 16 -41 11 -60 -10 -18 -20 -17 -20 59 -20 68 0 80 3 101 25 24 23
34 55 17 55 -4 0 -13 -5 -20 -12 -9 -9 -15 -9 -24 0 -16 16 -53 15 -67 -2z"/>
<path d="M7556 66 c3 -9 11 -16 16 -16 13 0 5 23 -10 28 -7 2 -10 -2 -6 -12z"/>
<path d="M285 10 c-4 -6 13 -10 44 -10 28 0 51 5 51 10 0 6 -20 10 -44 10 -25
0 -48 -4 -51 -10z"/>
</g>
</svg>
